<svg width="16" height="16" xmlns="http://www.w3.org/2000/svg">
 <style type="text/css">.st0{fill:#A6CE39;}
	.st1{fill:#FFFFFF;}</style>

 <g>
  <title>background</title>
  <rect fill="#ffffff" id="canvas_background" height="18" width="18" y="-1" x="-1"/>
 </g>
 <g>
  <title>Layer 1</title>
  <g stroke="null" id="svg_6">
   <path stroke="null" id="svg_1" d="m15.849875,8c0,4.335829 -3.514045,7.849875 -7.849875,7.849875c-4.335829,0 -7.849875,-3.514045 -7.849875,-7.849875c0,-4.335829 3.514045,-7.849875 7.849875,-7.849875c4.335829,0 7.849875,3.514045 7.849875,7.849875z" class="st0"/>
   <g stroke="null" id="svg_2">
    <path stroke="null" id="svg_3" d="m5.442658,11.56924l-0.944438,0l0,-6.568137l0.944438,0l0,2.968234l0,3.599903z" class="st1"/>
    <path stroke="null" id="svg_4" d="m6.828652,5.001103l2.551209,0c2.428555,0 3.495647,1.735558 3.495647,3.287135c0,1.686496 -1.318534,3.287135 -3.483382,3.287135l-2.563475,0l0,-6.57427zm0.944438,5.721823l1.502515,0c2.140317,0 2.630935,-1.625169 2.630935,-2.434688c0,-1.318534 -0.840182,-2.434688 -2.679996,-2.434688l-1.453453,0l0,4.869375z" class="st1"/>
    <path stroke="null" id="svg_5" d="m5.589843,3.633507c0,0.337299 -0.275972,0.619404 -0.619404,0.619404c-0.343432,0 -0.619404,-0.282105 -0.619404,-0.619404c0,-0.343432 0.275972,-0.619404 0.619404,-0.619404c0.343432,0 0.619404,0.282105 0.619404,0.619404z" class="st1"/>
   </g>
  </g>
 </g>
</svg>
